<?xml version="1.0" encoding="utf-8"?>
<!-- Generator: Adobe Illustrator 16.0.0, SVG Export Plug-In . SVG Version: 6.00 Build 0)  -->
<!DOCTYPE svg PUBLIC "-//W3C//DTD SVG 1.1//EN" "http://www.w3.org/Graphics/SVG/1.1/DTD/svg11.dtd">
<svg version="1.1" id="Layer_1" xmlns="http://www.w3.org/2000/svg" xmlns:xlink="http://www.w3.org/1999/xlink" x="0px" y="0px"
	 width="72px" height="72px" viewBox="0 0 72 72" enable-background="new 0 0 72 72" xml:space="preserve">
<path fill="#E6D9BC" stroke="#B2A992" stroke-width="0.75" stroke-miterlimit="10" d="M30.834,40.768
	c-0.845,7.115,3.259,9.277,5.907,8.984c1.675-0.186,3.559-2.477,2.292-4.465c-1.266-1.986,0.76,1.221,1.568,0.547
	c1.566-1.311-0.844-3.498-1.809-5.066C37.827,39.201,31.14,38.195,30.834,40.768z"/>
<path fill="#B2DDC4" stroke="#759181" stroke-width="0.75" stroke-miterlimit="10" d="M37.031,19.594
	c-2.273,1.364-5.299,6.769-6.244,11.387c-0.946,4.619-0.79,10.226,0.03,10.781c1.863,1.26,8.769,0.383,8.691-0.83
	c-0.109-1.701-1.676-9.15-1.389-11.061C39.271,22.194,39.871,17.892,37.031,19.594z"/>
</svg>
