<?xml version="1.0" encoding="utf-8"?>
<!-- Generator: Adobe Illustrator 16.0.0, SVG Export Plug-In . SVG Version: 6.00 Build 0)  -->
<!DOCTYPE svg PUBLIC "-//W3C//DTD SVG 1.1//EN" "http://www.w3.org/Graphics/SVG/1.1/DTD/svg11.dtd">
<svg version="1.1" id="Layer_1" xmlns="http://www.w3.org/2000/svg" xmlns:xlink="http://www.w3.org/1999/xlink" x="0px" y="0px"
	 width="72px" height="72px" viewBox="0 0 72 72" enable-background="new 0 0 72 72" xml:space="preserve">
<path fill="#60493F" d="M38.849,30.935c-0.006-0.063-0.119-0.089-0.018-0.115c0.635,1.133,0.951,3.556,0.445,4.749
	c1.238-1.228,1.781-3.188,1.879-4.868c0.645,0.227,1.34,1.828,1.547,2.474c0.23,0.717,0.256,1.643,0.617,2.27
	c0.564-1.225,0.484-2.939,0.484-4.285c0-1.099,0.025-2.105-0.244-3.167c0.656,1.198,0.77,2.419,0.977,3.734
	c0.074,0.476,0.125,1.487,0.426,1.851c0.658,0.793,1.104,0.857,1.441,0.984c2.186,0.816,5.223,0.113,7.359-0.5
	c1.244-0.357,2.162-1.046,3.137-1.86c-0.633-0.011-1.549,0.291-2.938,0.016c-1.045-0.208-2.656-0.444-3.504-1.089
	c1.875-0.15,3.598-0.994,4.484-1.841c1.348-1.289,2.213-2.766,2.818-4.508c-0.928,0.652-2.436,1.567-3.006,1.817
	c-1.096,0.48-2.477,1.064-3.693,1.064c3.359-3.725,3.408-5.383,3.188-8.506c-0.242,0.23-0.371,0.609-0.545,0.913
	c-0.404,0.712-0.912,1.352-1.498,1.921c-0.734,0.717-1.221,1.315-2.053,1.911c-0.414,0.296-1.293,0.914-1.797,0.986
	c2.25-2.415,2.939-3.975,2.934-7.423c-0.379,0.114-0.57,0.545-0.82,0.827c-0.518,0.579-1.135,1.104-1.783,1.525
	c-1.367,0.888-2.572,0.687-3.959,0.014c-3.076-1.493-5.771-3.909-9.221-4.535c-4.381-0.794-9.088,1.127-12.147,4.292
	c-3.775,3.905-5.751,8.835-5.472,14.313c0.093,1.818,0.574,5.074,1.893,6.463c0.811,0.855,2.601,5.882,2.59,6.93
	c1.458-0.824,1.401-1.869,1.784-3.363c0.135-0.527,0.099-1.303,0.22-1.83c0.175-0.765-0.007-1.887,0.181-2.66
	c0.128-0.527,1.362-0.31,1.901-0.511c0.505-0.19,1.681-0.175,2.058-0.699c0.779-1.085-0.783-3.767,0.998-4.091
	c1.603-0.293,2.883,0.645,4.504,0.484c1.635-0.16,5.473-0.367,5.072-2.477"/>
<path fill="#B3A891" d="M26.319,37.474c-1.267-2.1-4.533-3.1-5.981-1.292c-1.449,1.808-1.231,6.524,1.885,7.315
	C25.339,44.281,28.784,41.562,26.319,37.474z"/>
<path fill="#E6D9BC" d="M26.943,38.018c-1.075-1.601-4.349-2.358-5.541-0.952c-1.191,1.404-0.964,5.029,1.643,5.602
	C25.651,43.239,29.038,41.137,26.943,38.018z"/>
<path fill="#B3A891" d="M25.161,38.38c-0.415-0.645-1.519-1.502-2.282-0.891c-0.311,0.248-0.472,0.769-0.03,0.967
	c0.404,0.182,0.693-0.313,1.15-0.123c0.307,0.129,0.706,0.605,0.421,0.938c-0.248,0.29-0.996,0.022-1.375,0.137
	c-0.395,0.12-0.967,0.53-0.681,1.031c0.275,0.479,0.802,0.155,1.151-0.019c0.505-0.25,1.118-0.755,1.407,0.072
	c0.359,1.025-0.704,1.153-0.719,1.566C25.871,42.241,25.967,39.218,25.161,38.38"/>
</svg>
