<?xml version="1.0" encoding="utf-8"?>
<!-- Generator: Adobe Illustrator 16.0.0, SVG Export Plug-In . SVG Version: 6.00 Build 0)  -->
<!DOCTYPE svg PUBLIC "-//W3C//DTD SVG 1.1//EN" "http://www.w3.org/Graphics/SVG/1.1/DTD/svg11.dtd">
<svg version="1.1" id="Layer_1" xmlns="http://www.w3.org/2000/svg" xmlns:xlink="http://www.w3.org/1999/xlink" x="0px" y="0px"
	 width="72px" height="72px" viewBox="0 0 72 72" enable-background="new 0 0 72 72" xml:space="preserve">
<path fill="#321E14" stroke="#251710" stroke-width="0.75" stroke-miterlimit="10" d="M31.071,43.423c0,0-0.847,6.83-0.363,7.254
	s2.66,1.029,3.566,0.967c0.906-0.061,1.27,1.816,6.648,1.332c5.379-0.486,4.957-2.961,3.99-4.354
	c-0.969-1.391-5.26-5.32-6.287-5.742S32.098,40.28,31.071,43.423z"/>
<path fill="#575550" d="M31.29,22.218c-0.312,3.564-0.115,11.303-0.338,14.432c-0.373,5.217-1.339,6.842-0.932,7.32
	c0.616,0.717,11.844,1.643,12.069,0.229c0.16-1.002,0.971-18.166-0.523-22.342C40.071,17.683,31.557,19.157,31.29,22.218z"/>
<path fill="#7B7972" d="M32.358,21.661c-0.251,3.51-0.093,11.131-0.273,14.211c-0.302,5.137-1.082,6.738-0.752,7.207
	c0.498,0.709,9.577,1.617,9.758,0.227c0.129-0.986,0.785-17.889-0.424-22C39.46,17.194,32.574,18.647,32.358,21.661z"/>
</svg>
