<?xml version="1.0" encoding="utf-8"?>
<!-- Generator: Adobe Illustrator 16.0.0, SVG Export Plug-In . SVG Version: 6.00 Build 0)  -->
<!DOCTYPE svg PUBLIC "-//W3C//DTD SVG 1.1//EN" "http://www.w3.org/Graphics/SVG/1.1/DTD/svg11.dtd">
<svg version="1.1" id="Layer_1" xmlns="http://www.w3.org/2000/svg" xmlns:xlink="http://www.w3.org/1999/xlink" x="0px" y="0px"
	 width="72px" height="72px" viewBox="0 0 72 72" enable-background="new 0 0 72 72" xml:space="preserve">
<path fill="#B2DDC4" stroke="#759181" stroke-width="0.75" stroke-miterlimit="10" d="M32.07,20.354
	c-1.837,1.962-3.914,13.116-4.107,18.252c-0.193,5.139-1.155,9.443,1.091,9.951c2.246,0.508,16.553,1.715,16.618-0.643
	S43.426,23.737,43.043,21.5C42.656,19.263,33.995,18.298,32.07,20.354z"/>
<path d="M38.871,20.959h1.209l0.605,1.524l-1.27,1.799c0,0,2.537,14.879,2.539,15.051c0.004,0.346-2.354,4.307-2.354,4.307
	l-3.389-3.961l1.391-15.396l-1.391-1.799l0.472-1.387L38.871,20.959"/>
</svg>
