<?xml version="1.0" encoding="utf-8"?>
<!-- Generator: Adobe Illustrator 16.0.0, SVG Export Plug-In . SVG Version: 6.00 Build 0)  -->
<!DOCTYPE svg PUBLIC "-//W3C//DTD SVG 1.1//EN" "http://www.w3.org/Graphics/SVG/1.1/DTD/svg11.dtd">
<svg version="1.1" id="Layer_1" xmlns="http://www.w3.org/2000/svg" xmlns:xlink="http://www.w3.org/1999/xlink" x="0px" y="0px"
	 width="72px" height="72px" viewBox="0 0 72 72" enable-background="new 0 0 72 72" xml:space="preserve">
<path fill="#321E14" stroke="#251710" stroke-width="0.75" stroke-miterlimit="10" d="M30.626,44.478c0,0-0.846,6.83-0.363,7.254
	c0.484,0.424,2.66,1.029,3.566,0.967c0.907-0.061,1.271,1.816,6.649,1.332c5.379-0.486,4.957-2.961,3.988-4.354
	c-0.967-1.391-5.258-5.32-6.285-5.742C37.152,43.513,31.653,41.335,30.626,44.478z"/>
<path fill="#575550" d="M30.846,23.272c-0.312,3.564-0.115,11.303-0.338,14.432c-0.373,5.217-1.339,6.842-0.932,7.32
	c0.616,0.717,11.844,1.643,12.069,0.229c0.158-1.002,0.969-18.166-0.523-22.342C39.625,18.737,31.112,20.212,30.846,23.272z"/>
<path fill="#7B7972" d="M31.914,22.716c-0.251,3.51-0.093,11.131-0.273,14.211c-0.302,5.137-1.082,6.738-0.752,7.207
	c0.497,0.709,9.577,1.617,9.758,0.227c0.129-0.986,0.783-17.889-0.424-22C39.014,18.249,32.13,19.702,31.914,22.716z"/>
</svg>
